<svg xmlns="http://www.w3.org/2000/svg" xmlns:xlink="http://www.w3.org/1999/xlink" width="1920" zoomAndPan="magnify" viewBox="0 0 1440 809.999993" height="1080" preserveAspectRatio="xMidYMid meet" version="1.0"><defs><g/><clipPath id="bc86cd9c0f"><path d="M 515 297 L 926 297 L 926 620.957031 L 515 620.957031 Z M 515 297 " clip-rule="nonzero"/></clipPath></defs><g fill="#474037" fill-opacity="1"><g transform="translate(409.089501, 429.193352)"><g><path d="M -19.234375 -20.96875 L 4.578125 -11.53125 L 1.109375 -2.78125 L -37.25 -17.984375 L -33.78125 -26.734375 L -3.953125 -32.546875 L -3.90625 -32.640625 L -27.703125 -42.078125 L -24.25 -50.828125 L 14.109375 -35.625 L 10.65625 -26.875 L -19.203125 -21.0625 Z M -19.234375 -20.96875 "/></g></g></g><g fill="#474037" fill-opacity="1"><g transform="translate(424.049683, 392.112297)"><g><path d="M -24.265625 -42.6875 L -16.953125 -38.875 L -23.53125 -26.28125 L -16.265625 -22.484375 L -9.96875 -34.546875 L -2.65625 -30.71875 L -8.953125 -18.65625 L -1.578125 -14.8125 L 5 -27.40625 L 12.3125 -23.59375 L 1.390625 -2.65625 L -35.1875 -21.75 Z M -24.265625 -42.6875 "/></g></g></g><g fill="#474037" fill-opacity="1"><g transform="translate(436.527687, 367.368539)"><g><path d="M -14.515625 -24.46875 L 6.84375 -10.34375 L 1.65625 -2.5 L -32.75 -25.265625 L -27.5625 -33.109375 L 2.84375 -32.671875 L 2.890625 -32.75 L -18.453125 -46.875 L -13.265625 -54.71875 L 21.140625 -31.953125 L 15.953125 -24.109375 L -14.46875 -24.546875 Z M -14.515625 -24.46875 "/></g></g></g><g fill="#474037" fill-opacity="1"><g transform="translate(458.514521, 334.151058)"><g><path d="M -4.640625 -20.15625 L 8.015625 -9.46875 L 1.9375 -2.296875 L -29.578125 -28.9375 L -23.5 -36.109375 L -10.9375 -25.484375 L -2.359375 -35.640625 L -14.921875 -46.265625 L -8.859375 -53.453125 L 22.65625 -26.8125 L 16.59375 -19.625 L 3.9375 -30.3125 Z M -4.640625 -20.15625 "/></g></g></g><g fill="#474037" fill-opacity="1"><g transform="translate(482.1687, 306.081222)"><g><path d="M -3.171875 -53.828125 L 15.125 -34.5 C 18.613281 -30.8125 20.257812 -27.085938 20.0625 -23.328125 C 19.863281 -19.566406 17.847656 -15.875 14.015625 -12.25 C 10.191406 -8.625 6.394531 -6.8125 2.625 -6.8125 C -1.144531 -6.820312 -4.773438 -8.671875 -8.265625 -12.359375 L -26.5625 -31.6875 L -19.734375 -38.15625 L -3.328125 -20.828125 C -1.035156 -18.410156 0.9375 -17.085938 2.59375 -16.859375 C 4.257812 -16.640625 5.953125 -17.34375 7.671875 -18.96875 C 9.390625 -20.59375 10.179688 -22.238281 10.046875 -23.90625 C 9.910156 -25.582031 8.695312 -27.628906 6.40625 -30.046875 L -10 -47.375 Z M -3.171875 -53.828125 "/></g></g></g><g fill="#474037" fill-opacity="1"><g transform="translate(507.785901, 281.257413)"><g><path d="M 29.90625 -21.96875 L 13.859375 -40.515625 L 13.65625 -40.375 L 21.171875 -15.859375 L 16.671875 -12.546875 L -4.46875 -27.046875 L -4.671875 -26.90625 L 8.21875 -6.046875 L 0.640625 -0.46875 L -20.796875 -35.90625 L -12.734375 -41.828125 L 8.734375 -28.0625 L 2.015625 -52.671875 L 10.078125 -58.59375 L 37.484375 -27.53125 Z M 29.90625 -21.96875 "/></g></g></g><g fill="#474037" fill-opacity="1"><g transform="translate(545.383417, 254.509502)"><g/></g></g><g fill="#474037" fill-opacity="1"><g transform="translate(555.952952, 247.496804)"><g><path d="M 2.875 -47.625 L 36.28125 -18.234375 L 27.265625 -13.703125 L 20.828125 -19.703125 L 6.796875 -12.65625 L 7.78125 -3.90625 L -1.25 0.625 L -4.90625 -43.71875 Z M 14.265625 -25.640625 L 4.75 -34.3125 L 4.671875 -34.265625 L 5.953125 -21.46875 Z M 14.265625 -25.640625 "/></g></g></g><g fill="#474037" fill-opacity="1"><g transform="translate(589.589775, 230.420626)"><g><path d="M 2.96875 -28.296875 L 11.671875 -4.21875 L 2.828125 -1.015625 L -11.203125 -39.828125 L -2.359375 -43.03125 L 21.765625 -24.515625 L 21.859375 -24.546875 L 13.15625 -48.640625 L 22 -51.84375 L 36.03125 -13.03125 L 27.1875 -9.828125 L 3.046875 -28.328125 Z M 2.96875 -28.296875 "/></g></g></g><g fill="#474037" fill-opacity="1"><g transform="translate(627.581526, 217.205071)"><g><path d="M 1.234375 -43.078125 L 11.984375 -3.234375 L 2.890625 -0.78125 L -7.859375 -40.625 Z M 1.234375 -43.078125 "/></g></g></g><g fill="#474037" fill-opacity="1"><g transform="translate(641.142994, 212.727546)"><g><path d="M 36.5625 -6.3125 L 30.484375 -30.078125 L 30.234375 -30.03125 L 26.015625 -4.75 L 20.515625 -3.796875 L 8.0625 -26.203125 L 7.828125 -26.15625 L 10.046875 -1.734375 L 0.78125 -0.140625 L -2.578125 -41.421875 L 7.265625 -43.125 L 20.34375 -21.234375 L 25.3125 -46.234375 L 35.171875 -47.9375 L 45.84375 -7.921875 Z M 36.5625 -6.3125 "/></g></g></g><g fill="#474037" fill-opacity="1"><g transform="translate(686.205306, 205.101836)"><g><path d="M 22.140625 -42.28125 L 40.578125 -1.765625 L 30.484375 -1.328125 L 27.0625 -9.4375 L 11.375 -8.765625 L 8.6875 -0.375 L -1.40625 0.0625 L 13.4375 -41.890625 Z M 23.515625 -17.53125 L 18.40625 -29.34375 L 18.3125 -29.328125 L 14.21875 -17.140625 Z M 23.515625 -17.53125 "/></g></g></g><g fill="#474037" fill-opacity="1"><g transform="translate(724.113962, 203.660445)"><g><path d="M 14.703125 -40.515625 L 12.859375 -7.546875 L 27.03125 -6.75 L 26.5625 1.484375 L 3 0.171875 L 5.3125 -41.03125 Z M 14.703125 -40.515625 "/></g></g></g><g fill="#474037" fill-opacity="1"><g transform="translate(751.515674, 205.396749)"><g/></g></g><g fill="#474037" fill-opacity="1"><g transform="translate(764.309229, 206.64064)"><g><path d="M 33.578125 -35.8125 L 32.109375 -27.703125 L 18.140625 -30.25 L 16.65625 -22.171875 L 30.046875 -19.734375 L 28.5625 -11.625 L 15.171875 -14.0625 L 13.6875 -5.875 L 27.65625 -3.328125 L 26.171875 4.78125 L 2.953125 0.53125 L 10.359375 -40.0625 Z M 33.578125 -35.8125 "/></g></g></g><g fill="#474037" fill-opacity="1"><g transform="translate(791.63905, 211.236852)"><g><path d="M 19.09375 -21.09375 L 11.90625 3.484375 L 2.875 0.84375 L 14.453125 -38.765625 L 23.484375 -36.125 L 32.046875 -6.953125 L 32.140625 -6.921875 L 39.328125 -31.5 L 48.359375 -28.859375 L 36.78125 10.75 L 27.75 8.109375 L 19.1875 -21.078125 Z M 19.09375 -21.09375 "/></g></g></g><g fill="#474037" fill-opacity="1"><g transform="translate(829.875258, 222.429611)"><g><path d="M 26.296875 1.90625 C 27.617188 2.46875 28.984375 2.8125 30.390625 2.9375 C 31.804688 3.070312 32.882812 3.070312 33.625 2.9375 L 34.75 2.71875 L 35.3125 11.640625 C 35.15625 11.679688 34.9375 11.726562 34.65625 11.78125 C 34.375 11.84375 33.753906 11.914062 32.796875 12 C 31.835938 12.09375 30.84375 12.101562 29.8125 12.03125 C 28.789062 11.957031 27.507812 11.738281 25.96875 11.375 C 24.425781 11.007812 22.882812 10.503906 21.34375 9.859375 C 17.8125 8.359375 14.832031 6.070312 12.40625 3 C 9.976562 -0.0703125 8.441406 -3.535156 7.796875 -7.390625 C 7.148438 -11.242188 7.578125 -14.941406 9.078125 -18.484375 C 10.210938 -21.148438 11.863281 -23.46875 14.03125 -25.4375 C 16.195312 -27.414062 18.597656 -28.878906 21.234375 -29.828125 C 23.867188 -30.773438 26.664062 -31.238281 29.625 -31.21875 C 32.59375 -31.207031 35.394531 -30.640625 38.03125 -29.515625 C 40.5 -28.472656 42.640625 -27.222656 44.453125 -25.765625 C 46.273438 -24.304688 47.488281 -23.101562 48.09375 -22.15625 L 49.03125 -20.734375 L 42.21875 -14.921875 C 42.082031 -15.203125 41.851562 -15.5625 41.53125 -16 C 41.21875 -16.4375 40.507812 -17.144531 39.40625 -18.125 C 38.300781 -19.101562 37.085938 -19.875 35.765625 -20.4375 C 33.679688 -21.320312 31.664062 -21.773438 29.71875 -21.796875 C 27.769531 -21.828125 26.078125 -21.492188 24.640625 -20.796875 C 23.203125 -20.097656 21.957031 -19.21875 20.90625 -18.15625 C 19.863281 -17.09375 19.066406 -15.898438 18.515625 -14.578125 C 17.285156 -11.691406 17.269531 -8.648438 18.46875 -5.453125 C 19.664062 -2.253906 22.273438 0.195312 26.296875 1.90625 Z M 26.296875 1.90625 "/></g></g></g><g fill="#474037" fill-opacity="1"><g transform="translate(863.282432, 236.27725)"><g><path d="M 11.28125 -17.34375 C 14.25 -22.519531 18.523438 -25.890625 24.109375 -27.453125 C 29.703125 -29.015625 34.984375 -28.367188 39.953125 -25.515625 C 44.953125 -22.640625 48.175781 -18.410156 49.625 -12.828125 C 51.070312 -7.253906 50.304688 -1.867188 47.328125 3.328125 C 44.328125 8.566406 40.082031 11.984375 34.59375 13.578125 C 29.101562 15.179688 23.796875 14.515625 18.671875 11.578125 C 13.429688 8.578125 10.128906 4.332031 8.765625 -1.15625 C 7.398438 -6.644531 8.238281 -12.039062 11.28125 -17.34375 Z M 20.078125 -12.296875 C 18.992188 -10.410156 18.296875 -8.53125 17.984375 -6.65625 C 17.679688 -4.78125 17.945312 -2.890625 18.78125 -0.984375 C 19.625 0.910156 21.097656 2.460938 23.203125 3.671875 C 26.234375 5.410156 29.125 5.679688 31.875 4.484375 C 34.625 3.296875 36.84375 1.226562 38.53125 -1.71875 C 40.207031 -4.632812 40.851562 -7.59375 40.46875 -10.59375 C 40.09375 -13.59375 38.414062 -15.945312 35.4375 -17.65625 C 32.488281 -19.34375 29.609375 -19.597656 26.796875 -18.421875 C 23.992188 -17.253906 21.753906 -15.210938 20.078125 -12.296875 Z M 20.078125 -12.296875 "/></g></g></g><g fill="#474037" fill-opacity="1"><g transform="translate(899.971762, 257.301183)"><g><path d="M 25.328125 -12.96875 L 9.90625 7.46875 L 2.390625 1.8125 L 27.25 -31.125 L 34.765625 -25.46875 L 32.421875 4.859375 L 32.5 4.90625 L 47.9375 -15.53125 L 55.4375 -9.859375 L 30.578125 23.078125 L 23.078125 17.40625 L 25.40625 -12.90625 Z M 25.328125 -12.96875 "/></g></g></g><g fill="#474037" fill-opacity="1"><g transform="translate(931.737654, 281.562376)"><g><path d="M 22.828125 -23.84375 L 28.453125 -29.875 L 49.640625 -10.09375 L 44.015625 -4.0625 L 36.859375 -10.734375 L 14.328125 13.390625 L 7.453125 6.96875 L 29.984375 -17.15625 Z M 22.828125 -23.84375 "/></g></g></g><g fill="#474037" fill-opacity="1"><g transform="translate(952.772525, 300.917099)"><g><path d="M 32.921875 -25.046875 L 42.6875 -13.984375 C 45.3125 -11.003906 46.65625 -7.875 46.71875 -4.59375 C 46.78125 -1.320312 45.34375 1.613281 42.40625 4.21875 C 40.125 6.226562 37.710938 7.335938 35.171875 7.546875 C 32.640625 7.765625 30.195312 7.175781 27.84375 5.78125 L 24.453125 27.71875 L 16.546875 18.765625 L 20.4375 -1.5 L 8.203125 9.296875 L 1.984375 2.25 Z M 25.421875 -5.890625 L 26.15625 -5.0625 C 26.71875 -4.414062 27.210938 -3.875 27.640625 -3.4375 C 28.066406 -3.007812 28.601562 -2.578125 29.25 -2.140625 C 29.90625 -1.703125 30.523438 -1.425781 31.109375 -1.3125 C 31.703125 -1.195312 32.367188 -1.242188 33.109375 -1.453125 C 33.859375 -1.671875 34.609375 -2.109375 35.359375 -2.765625 C 36.109375 -3.429688 36.632812 -4.117188 36.9375 -4.828125 C 37.25 -5.546875 37.382812 -6.203125 37.34375 -6.796875 C 37.3125 -7.398438 37.113281 -8.050781 36.75 -8.75 C 36.394531 -9.457031 36.03125 -10.050781 35.65625 -10.53125 C 35.289062 -11.007812 34.828125 -11.570312 34.265625 -12.21875 L 33.53125 -13.046875 Z M 25.421875 -5.890625 "/></g></g></g><g fill="#474037" fill-opacity="1"><g transform="translate(975.670757, 326.615909)"><g><path d="M 47.53125 -4.125 L 23.34375 33.234375 L 17.53125 24.96875 L 22.53125 17.734375 L 13.5 4.875 L 5 7.125 L -0.8125 -1.15625 L 42.53125 -11.234375 Z M 27.4375 10.359375 L 34.625 -0.3125 L 34.578125 -0.375 L 22.09375 2.75 Z M 27.4375 10.359375 "/></g></g></g><g fill="#474037" fill-opacity="1"><g transform="translate(997.402826, 357.537136)"><g><path d="M 37.65625 -17.15625 L 43.390625 -6.65625 C 46.140625 -1.625 46.769531 3.613281 45.28125 9.0625 C 43.800781 14.507812 40.46875 18.648438 35.28125 21.484375 C 30.070312 24.328125 24.773438 24.910156 19.390625 23.234375 C 14.015625 21.554688 9.941406 18.1875 7.171875 13.125 L 1.4375 2.625 Z M 13.328125 6.859375 L 14.015625 8.125 C 15.660156 11.132812 18.023438 13.046875 21.109375 13.859375 C 24.191406 14.671875 27.273438 14.25 30.359375 12.59375 C 33.429688 10.90625 35.46875 8.546875 36.46875 5.515625 C 37.46875 2.492188 37.132812 -0.539062 35.46875 -3.59375 L 34.78125 -4.859375 Z M 13.328125 6.859375 "/></g></g></g><g fill="#474037" fill-opacity="1"><g transform="translate(1014.654495, 388.476745)"><g><path d="M 19.609375 -6.609375 C 25.148438 -8.828125 30.59375 -8.816406 35.9375 -6.578125 C 41.289062 -4.335938 45.035156 -0.5625 47.171875 4.75 C 49.316406 10.101562 49.226562 15.421875 46.90625 20.703125 C 44.582031 25.984375 40.632812 29.738281 35.0625 31.96875 C 29.46875 34.21875 24.015625 34.265625 18.703125 32.109375 C 13.398438 29.960938 9.65625 26.144531 7.46875 20.65625 C 5.21875 15.0625 5.257812 9.6875 7.59375 4.53125 C 9.9375 -0.625 13.941406 -4.335938 19.609375 -6.609375 Z M 23.375 2.796875 C 21.363281 3.609375 19.648438 4.65625 18.234375 5.9375 C 16.828125 7.21875 15.863281 8.863281 15.34375 10.875 C 14.832031 12.882812 15.03125 15.015625 15.9375 17.265625 C 17.226562 20.515625 19.320312 22.523438 22.21875 23.296875 C 25.113281 24.066406 28.132812 23.816406 31.28125 22.546875 C 34.40625 21.296875 36.75 19.378906 38.3125 16.796875 C 39.882812 14.210938 40.035156 11.320312 38.765625 8.125 C 37.492188 4.976562 35.390625 2.988281 32.453125 2.15625 C 29.523438 1.332031 26.5 1.546875 23.375 2.796875 Z M 23.375 2.796875 "/></g></g></g><g clip-path="url(#bc86cd9c0f)"><path fill="#474037" d="M 750.785156 299.449219 C 752.257812 301.410156 752.3125 304.03125 750.902344 306.050781 C 746.261719 312.566406 743.609375 319.398438 742.976562 326.605469 C 742.457031 332.71875 743.378906 339.089844 745.683594 345.71875 C 768.167969 348.515625 787.21875 355.203125 803.621094 365.699219 C 809.933594 363.363281 817.597656 362.730469 826.074219 363.855469 C 841.40625 365.902344 859.566406 373.800781 876.023438 386.3125 C 895.882812 401.417969 913.292969 423.242188 920.554688 449.390625 C 929.117188 480.09375 924.503906 505.898438 914.300781 520.570312 C 908.277344 529.222656 900.292969 534.265625 891.644531 535.042969 C 888.621094 535.332031 885.449219 535.101562 882.25 534.324219 C 880.230469 547.039062 875.679688 558.972656 868.183594 569.699219 C 846.941406 600.054688 801.429688 620.957031 720.292969 620.957031 C 639.152344 620.957031 593.640625 600.054688 572.398438 569.699219 C 564.90625 558.972656 560.378906 547.039062 558.332031 534.296875 C 555.132812 535.101562 551.964844 535.332031 548.9375 535.042969 C 540.289062 534.265625 532.304688 529.222656 526.3125 520.570312 C 516.078125 505.898438 511.464844 480.09375 520.027344 449.390625 C 527.320312 423.242188 544.730469 401.417969 564.589844 386.3125 C 581.046875 373.800781 599.175781 365.902344 614.511719 363.855469 C 622.984375 362.730469 630.652344 363.363281 636.964844 365.699219 C 651.230469 356.589844 667.488281 350.363281 686.25 347.015625 C 684.40625 338.542969 684.0625 331.101562 685.039062 324.703125 C 686.195312 317.234375 689.191406 311.066406 693.917969 306.164062 C 695.503906 304.578125 697.894531 304.03125 699.972656 304.867188 C 702.074219 305.703125 703.457031 307.75 703.457031 310 C 703.457031 316.71875 705.015625 322.914062 707.378906 327.902344 C 708.734375 330.785156 710.347656 333.265625 712.078125 335.140625 C 713.289062 326.894531 716.140625 320.320312 720.003906 315.015625 C 726.285156 306.425781 735.25 301.0625 744.445312 297.632812 C 746.722656 296.824219 749.289062 297.546875 750.785156 299.449219 Z M 733.664062 316.371094 C 731.964844 317.871094 730.351562 319.601562 728.96875 321.53125 C 724.988281 326.980469 722.539062 334.246094 722.539062 343.960938 C 722.539062 347.046875 720.0625 349.496094 717.003906 349.496094 C 711.527344 349.496094 704.640625 345.058594 699.625 336.867188 C 698.15625 334.449219 696.828125 331.679688 695.707031 328.679688 C 695.675781 329.199219 695.617188 329.660156 695.617188 330.179688 C 695.359375 335.976562 696.308594 342.546875 698.414062 350.015625 C 698.847656 351.542969 698.617188 353.214844 697.722656 354.542969 C 696.859375 355.898438 695.445312 356.789062 693.859375 356.992188 C 670.886719 360.222656 651.835938 367.949219 635.722656 380.054688 C 617.160156 394.988281 606.554688 410.703125 600.269531 426.15625 C 591.824219 447 591.105469 467.351562 589.320312 484.535156 C 587.53125 501.804688 584.390625 516.074219 573.871094 525.5 C 572.199219 527 570.496094 528.355469 568.824219 529.453125 C 571.273438 549.34375 580.410156 567.132812 598.457031 580.769531 C 622.464844 598.960938 661.578125 609.886719 720.292969 609.886719 C 779.035156 609.886719 818.117188 598.960938 842.128906 580.769531 C 860.171875 567.132812 869.308594 549.34375 871.785156 529.453125 C 870.085938 528.355469 868.386719 527 866.714844 525.5 C 856.222656 516.074219 853.082031 501.804688 851.265625 484.535156 C 849.476562 467.351562 848.757812 447 840.3125 426.15625 C 834.027344 410.703125 823.449219 394.988281 804.886719 380.054688 C 787.480469 366.996094 766.640625 359.039062 741.101562 356.300781 C 739.085938 356.097656 737.324219 354.773438 736.578125 352.898438 C 732.714844 343.382812 731.214844 334.304688 731.964844 325.652344 C 732.222656 322.511719 732.800781 319.398438 733.664062 316.371094 Z M 616.007812 374.808594 C 602.230469 376.652344 586.03125 383.917969 571.273438 395.105469 C 553.230469 408.855469 537.292969 428.578125 530.691406 452.332031 C 523.253906 479.027344 526.511719 501.515625 535.390625 514.257812 C 539.308594 519.910156 544.324219 523.511719 549.976562 524.03125 C 555.25 524.523438 560.871094 522.332031 566.492188 517.285156 C 575.078125 509.53125 576.839844 497.535156 578.308594 483.382812 C 580.210938 465.335938 581.132812 443.941406 590.011719 422.003906 C 596.464844 406.089844 607.042969 389.859375 625.144531 374.433594 C 622.292969 374.230469 619.207031 374.40625 616.007812 374.808594 Z M 815.4375 374.433594 C 833.539062 389.859375 844.117188 406.089844 850.574219 422.003906 C 859.449219 443.941406 860.402344 465.335938 862.273438 483.382812 C 863.746094 497.535156 865.503906 509.53125 874.121094 517.285156 C 879.714844 522.332031 885.332031 524.523438 890.636719 524.03125 C 896.257812 523.511719 901.273438 519.910156 905.191406 514.257812 C 914.070312 501.515625 917.328125 479.027344 909.890625 452.332031 C 903.289062 428.578125 887.351562 408.855469 869.308594 395.105469 C 854.550781 383.917969 838.351562 376.652344 824.601562 374.808594 C 821.375 374.40625 818.289062 374.230469 815.4375 374.433594 Z M 815.4375 374.433594 " fill-opacity="1" fill-rule="evenodd"/></g><path fill="#474037" d="M 720.292969 515.929688 C 726.144531 515.929688 736.894531 505.4375 736.894531 499.324219 C 736.894531 493.210938 729.457031 493.789062 720.292969 493.789062 C 711.125 493.789062 703.6875 493.210938 703.6875 499.324219 C 703.6875 505.4375 714.46875 515.929688 720.292969 515.929688 Z M 720.292969 515.929688 " fill-opacity="1" fill-rule="evenodd"/><path fill="#474037" d="M 646.9375 501.167969 C 647.136719 501.371094 647.484375 501.773438 647.972656 502.351562 C 648.753906 503.273438 649.617188 504.285156 650.566406 505.4375 C 653.25 508.695312 655.929688 512.183594 658.4375 515.816406 C 661.03125 519.5625 663.308594 523.195312 665.152344 526.65625 C 668.582031 533.085938 670.484375 538.734375 670.484375 543.75 C 670.484375 558.972656 658.089844 571.285156 642.816406 571.285156 C 627.539062 571.285156 615.144531 558.972656 615.144531 543.75 C 615.144531 538.734375 617.074219 533.085938 620.476562 526.65625 C 622.351562 523.195312 624.628906 519.5625 627.222656 515.816406 C 629.730469 512.183594 632.410156 508.695312 635.089844 505.4375 C 636.011719 504.285156 636.90625 503.273438 637.683594 502.351562 C 638.144531 501.773438 638.519531 501.371094 638.691406 501.167969 C 640.914062 498.71875 644.746094 498.71875 646.9375 501.167969 Z M 642.816406 513.449219 C 640.59375 516.21875 638.375 519.160156 636.300781 522.128906 C 633.9375 525.5 631.890625 528.789062 630.246094 531.875 C 627.625 536.804688 626.210938 540.925781 626.210938 543.75 C 626.210938 552.832031 633.648438 560.214844 642.816406 560.214844 C 652.007812 560.214844 659.417969 552.832031 659.417969 543.75 C 659.417969 540.925781 658.03125 536.804688 655.382812 531.875 C 653.765625 528.789062 651.722656 525.5 649.355469 522.128906 C 647.28125 519.160156 645.0625 516.21875 642.816406 513.449219 Z M 642.816406 513.449219 " fill-opacity="1" fill-rule="nonzero"/><path fill="#474037" d="M 702.421875 558.222656 C 700.460938 560.558594 696.972656 560.875 694.609375 558.945312 C 692.273438 556.984375 691.957031 553.496094 693.917969 551.132812 C 700.777344 542.886719 710.175781 538.070312 720.292969 538.070312 C 730.410156 538.070312 739.804688 542.886719 746.695312 551.132812 C 748.652344 553.496094 748.308594 556.984375 745.972656 558.945312 C 743.609375 560.875 740.121094 560.558594 738.191406 558.222656 C 733.320312 552.398438 726.976562 549.140625 720.292969 549.140625 C 713.605469 549.140625 707.261719 552.398438 702.421875 558.222656 Z M 702.421875 558.222656 " fill-opacity="1" fill-rule="nonzero"/><path fill="#474037" d="M 618.777344 491.828125 C 615.894531 490.734375 614.421875 487.589844 615.488281 484.679688 C 616.554688 481.796875 619.726562 480.382812 622.609375 481.421875 C 626.585938 482.863281 631.371094 483.671875 636.386719 483.671875 C 644.457031 483.671875 651.75 481.566406 656.074219 478.308594 C 658.523438 476.460938 661.980469 476.953125 663.828125 479.375 C 665.671875 481.824219 665.210938 485.285156 662.761719 487.128906 C 656.363281 491.972656 646.734375 494.742188 636.386719 494.742188 C 630.101562 494.742188 624.023438 493.730469 618.777344 491.828125 Z M 618.777344 491.828125 " fill-opacity="1" fill-rule="nonzero"/><path fill="#474037" d="M 777.824219 487.128906 C 775.402344 485.285156 774.910156 481.824219 776.757812 479.375 C 778.601562 476.953125 782.058594 476.460938 784.511719 478.308594 C 788.832031 481.566406 796.125 483.671875 804.195312 483.671875 C 809.210938 483.671875 813.996094 482.863281 818.003906 481.421875 C 820.855469 480.382812 824.054688 481.796875 825.09375 484.679688 C 826.160156 487.589844 824.6875 490.734375 821.835938 491.828125 C 816.5625 493.730469 810.507812 494.742188 804.195312 494.742188 C 793.878906 494.742188 784.222656 491.972656 777.824219 487.128906 Z M 777.824219 487.128906 " fill-opacity="1" fill-rule="nonzero"/></svg>